<?xml version="1.0" encoding="UTF-8"?><svg xmlns:svg="http://www.w3.org/2000/svg" xmlns="http://www.w3.org/2000/svg" xmlns:xlink="http://www.w3.org/1999/xlink" version="2.0" width="1200" height="2060" ><style >
svg {
  font-family: Helvetica, Arial, sans-serif;
  font-size: 11px;
}
rect {
  stroke-linecap: butt;
  stroke-width: 3;
  stroke: #fff;
/*  stroke-opacity: 1; */
}
rect:hover {
  stroke: #fff;
/*  stroke-opacity: 1; /*
}
polygon { fill: #000; }</style><defs ><polygon id="ahead" points="0 0, -12 4, -12 -4" /><filter id="glow" x="0" y="0" ><feGaussianBlur in="SourceAlpha" stdDeviation="2" result="blurred" /><feFlood flood-color="#fff" /><feComposite operator="in" in2="blurred" /><feComponentTransfer ><feFuncA type="linear" slope="10" intercept="0" /></feComponentTransfer><feMerge ><feMergeNode /><feMergeNode in="SourceGraphic" /></feMerge></filter></defs><g ><text x="20.689655" y="20.0" text-anchor="middle" alignment-baseline="middle" fill="#000" >c10</text><text x="20.689655" y="1020.0" text-anchor="middle" alignment-baseline="middle" fill="#aaa" >c10</text><text x="62.068966" y="20.0" text-anchor="middle" alignment-baseline="middle" fill="#000" >c11</text><text x="62.068966" y="1020.0" text-anchor="middle" alignment-baseline="middle" fill="#aaa" >c11</text><text x="103.44827" y="20.0" text-anchor="middle" alignment-baseline="middle" fill="#000" >c12</text><text x="103.44827" y="1020.0" text-anchor="middle" alignment-baseline="middle" fill="#aaa" >c12</text><text x="144.82759" y="20.0" text-anchor="middle" alignment-baseline="middle" fill="#000" >c13</text><text x="144.82759" y="1020.0" text-anchor="middle" alignment-baseline="middle" fill="#aaa" >c13</text><text x="186.2069" y="20.0" text-anchor="middle" alignment-baseline="middle" fill="#000" >c14</text><text x="186.2069" y="1020.0" text-anchor="middle" alignment-baseline="middle" fill="#aaa" >c14</text><text x="227.58621" y="20.0" text-anchor="middle" alignment-baseline="middle" fill="#000" >c15</text><text x="227.58621" y="1020.0" text-anchor="middle" alignment-baseline="middle" fill="#aaa" >c15</text><text x="268.9655" y="20.0" text-anchor="middle" alignment-baseline="middle" fill="#000" >c16</text><text x="268.9655" y="1020.0" text-anchor="middle" alignment-baseline="middle" fill="#aaa" >c16</text><text x="310.34482" y="20.0" text-anchor="middle" alignment-baseline="middle" fill="#000" >c17</text><text x="310.34482" y="1020.0" text-anchor="middle" alignment-baseline="middle" fill="#aaa" >c17</text><text x="351.72415" y="20.0" text-anchor="middle" alignment-baseline="middle" fill="#000" >c18</text><text x="351.72415" y="1020.0" text-anchor="middle" alignment-baseline="middle" fill="#aaa" >c18</text><text x="393.10345" y="20.0" text-anchor="middle" alignment-baseline="middle" fill="#000" >c19</text><text x="393.10345" y="1020.0" text-anchor="middle" alignment-baseline="middle" fill="#aaa" >c19</text><text x="434.48276" y="20.0" text-anchor="middle" alignment-baseline="middle" fill="#000" >c20</text><text x="434.48276" y="1020.0" text-anchor="middle" alignment-baseline="middle" fill="#aaa" >c20</text><text x="475.86206" y="20.0" text-anchor="middle" alignment-baseline="middle" fill="#000" >c21</text><text x="475.86206" y="1020.0" text-anchor="middle" alignment-baseline="middle" fill="#aaa" >c21</text><text x="517.2414" y="20.0" text-anchor="middle" alignment-baseline="middle" fill="#000" >c22</text><text x="517.2414" y="1020.0" text-anchor="middle" alignment-baseline="middle" fill="#aaa" >c22</text><text x="558.62067" y="20.0" text-anchor="middle" alignment-baseline="middle" fill="#000" >c23</text><text x="558.62067" y="1020.0" text-anchor="middle" alignment-baseline="middle" fill="#aaa" >c23</text><text x="600.0" y="20.0" text-anchor="middle" alignment-baseline="middle" fill="#000" >c24</text><text x="600.0" y="1020.0" text-anchor="middle" alignment-baseline="middle" fill="#aaa" >c24</text><text x="641.37933" y="20.0" text-anchor="middle" alignment-baseline="middle" fill="#000" >c25</text><text x="641.37933" y="1020.0" text-anchor="middle" alignment-baseline="middle" fill="#aaa" >c25</text><text x="682.7586" y="20.0" text-anchor="middle" alignment-baseline="middle" fill="#000" >c26</text><text x="682.7586" y="1020.0" text-anchor="middle" alignment-baseline="middle" fill="#aaa" >c26</text><text x="724.13794" y="20.0" text-anchor="middle" alignment-baseline="middle" fill="#000" >c27</text><text x="724.13794" y="1020.0" text-anchor="middle" alignment-baseline="middle" fill="#aaa" >c27</text><text x="765.5172" y="20.0" text-anchor="middle" alignment-baseline="middle" fill="#000" >c28</text><text x="765.5172" y="1020.0" text-anchor="middle" alignment-baseline="middle" fill="#aaa" >c28</text><text x="806.89655" y="20.0" text-anchor="middle" alignment-baseline="middle" fill="#000" >c29</text><text x="806.89655" y="1020.0" text-anchor="middle" alignment-baseline="middle" fill="#aaa" >c29</text><text x="848.2759" y="20.0" text-anchor="middle" alignment-baseline="middle" fill="#000" >c30</text><text x="848.2759" y="1020.0" text-anchor="middle" alignment-baseline="middle" fill="#aaa" >c30</text><text x="889.65515" y="20.0" text-anchor="middle" alignment-baseline="middle" fill="#000" >c31</text><text x="889.65515" y="1020.0" text-anchor="middle" alignment-baseline="middle" fill="#aaa" >c31</text><text x="931.0345" y="20.0" text-anchor="middle" alignment-baseline="middle" fill="#000" >c32</text><text x="931.0345" y="1020.0" text-anchor="middle" alignment-baseline="middle" fill="#aaa" >c32</text><text x="972.4138" y="20.0" text-anchor="middle" alignment-baseline="middle" fill="#000" >c33</text><text x="972.4138" y="1020.0" text-anchor="middle" alignment-baseline="middle" fill="#aaa" >c33</text><text x="1013.7931" y="20.0" text-anchor="middle" alignment-baseline="middle" fill="#000" >n1</text><text x="1013.7931" y="1020.0" text-anchor="middle" alignment-baseline="middle" fill="#aaa" >n1</text><text x="1055.1724" y="20.0" text-anchor="middle" alignment-baseline="middle" fill="#000" >n2</text><text x="1055.1724" y="1020.0" text-anchor="middle" alignment-baseline="middle" fill="#aaa" >n2</text><text x="1096.5518" y="20.0" text-anchor="middle" alignment-baseline="middle" fill="#000" >n3</text><text x="1096.5518" y="1020.0" text-anchor="middle" alignment-baseline="middle" fill="#aaa" >n3</text><text x="1137.931" y="20.0" text-anchor="middle" alignment-baseline="middle" fill="#000" >n4</text><text x="1137.931" y="1020.0" text-anchor="middle" alignment-baseline="middle" fill="#aaa" >n4</text><text x="1179.3103" y="20.0" text-anchor="middle" alignment-baseline="middle" fill="#000" >n5</text><text x="1179.3103" y="1020.0" text-anchor="middle" alignment-baseline="middle" fill="#aaa" >n5</text></g><g ><line stroke="#ccc" x1="20.689655" y1="30.0" x2="20.689655" y2="1970.0" /><line stroke="#ccc" x1="62.068966" y1="30.0" x2="62.068966" y2="1970.0" /><line stroke="#ccc" x1="103.44827" y1="30.0" x2="103.44827" y2="1970.0" /><line stroke="#ccc" x1="144.82759" y1="30.0" x2="144.82759" y2="1970.0" /><line stroke="#ccc" x1="186.2069" y1="30.0" x2="186.2069" y2="1970.0" /><line stroke="#ccc" x1="227.58621" y1="30.0" x2="227.58621" y2="1970.0" /><line stroke="#ccc" x1="268.9655" y1="30.0" x2="268.9655" y2="1970.0" /><line stroke="#ccc" x1="310.34482" y1="30.0" x2="310.34482" y2="1970.0" /><line stroke="#ccc" x1="351.72415" y1="30.0" x2="351.72415" y2="1970.0" /><line stroke="#ccc" x1="393.10345" y1="30.0" x2="393.10345" y2="1970.0" /><line stroke="#ccc" x1="434.48276" y1="30.0" x2="434.48276" y2="1970.0" /><line stroke="#ccc" x1="475.86206" y1="30.0" x2="475.86206" y2="1970.0" /><line stroke="#ccc" x1="517.2414" y1="30.0" x2="517.2414" y2="1970.0" /><line stroke="#ccc" x1="558.62067" y1="30.0" x2="558.62067" y2="1970.0" /><line stroke="#ccc" x1="600.0" y1="30.0" x2="600.0" y2="1970.0" /><line stroke="#ccc" x1="641.37933" y1="30.0" x2="641.37933" y2="1970.0" /><line stroke="#ccc" x1="682.7586" y1="30.0" x2="682.7586" y2="1970.0" /><line stroke="#ccc" x1="724.13794" y1="30.0" x2="724.13794" y2="1970.0" /><line stroke="#ccc" x1="765.5172" y1="30.0" x2="765.5172" y2="1970.0" /><line stroke="#ccc" x1="806.89655" y1="30.0" x2="806.89655" y2="1970.0" /><line stroke="#ccc" x1="848.2759" y1="30.0" x2="848.2759" y2="1970.0" /><line stroke="#ccc" x1="889.65515" y1="30.0" x2="889.65515" y2="1970.0" /><line stroke="#ccc" x1="931.0345" y1="30.0" x2="931.0345" y2="1970.0" /><line stroke="#ccc" x1="972.4138" y1="30.0" x2="972.4138" y2="1970.0" /><line stroke="#ccc" x1="1013.7931" y1="30.0" x2="1013.7931" y2="1970.0" /><line stroke="#ccc" x1="1055.1724" y1="30.0" x2="1055.1724" y2="1970.0" /><line stroke="#ccc" x1="1096.5518" y1="30.0" x2="1096.5518" y2="1970.0" /><line stroke="#ccc" x1="1137.931" y1="30.0" x2="1137.931" y2="1970.0" /><line stroke="#ccc" x1="1179.3103" y1="30.0" x2="1179.3103" y2="1970.0" /></g><g ><g transform="translate(20.689655 50.0) rotate(1.025555654286499) " ><rect x="0" y="-2.5" height="5" width="1113.4203729768399" fill="#81BFFC" ><title >c10 → n4 {:echo "Please echo 64", :type "echo", :msg_id 1}</title></rect><use xlink:href="#ahead" x="1117.4203729768399" y="0" /><text text-anchor="middle" x="558.7101864884199" y="-4" transform="" filter="url(#glow)" style="fill: #fff" >echo {:echo "Please echo 64"}</text><text text-anchor="middle" x="558.7101864884199" y="-4" transform="" >echo {:echo "Please echo 64"}</text></g><g transform="translate(1137.931 90.0) rotate(178.9744443457135) " ><rect x="0" y="-2.5" height="5" width="1113.4203729768399" fill="#81BFFC" ><title >n4 → c10 {:type "echo_ok", :in_reply_to 1, :msg_id 2}</title></rect><use xlink:href="#ahead" x="1117.4203729768399" y="0" /><text text-anchor="middle" x="558.7101864884199" y="-4" transform="rotate(180 558.7101864884199 0)" filter="url(#glow)" style="fill: #fff" >echo_ok {}</text><text text-anchor="middle" x="558.7101864884199" y="-4" transform="rotate(180 558.7101864884199 0)" >echo_ok {}</text></g><g transform="translate(62.068966 130.0) rotate(1.0649911864070416) " ><rect x="0" y="-2.5" height="5" width="1072.0479457404972" fill="#81BFFC" ><title >c11 → n4 {:echo "Please echo 100", :type "echo", :msg_id 1}</title></rect><use xlink:href="#ahead" x="1076.0479457404972" y="0" /><text text-anchor="middle" x="538.0239728702486" y="-4" transform="" filter="url(#glow)" style="fill: #fff" >echo {:echo "Please echo 100"}</text><text text-anchor="middle" x="538.0239728702486" y="-4" transform="" >echo {:echo "Please echo 100"}</text></g><g transform="translate(1137.931 170.0) rotate(178.93500881359296) " ><rect x="0" y="-2.5" height="5" width="1072.0479457404972" fill="#81BFFC" ><title >n4 → c11 {:type "echo_ok", :in_reply_to 1, :msg_id 3}</title></rect><use xlink:href="#ahead" x="1076.0479457404972" y="0" /><text text-anchor="middle" x="538.0239728702486" y="-4" transform="rotate(180 538.0239728702486 0)" filter="url(#glow)" style="fill: #fff" >echo_ok {}</text><text text-anchor="middle" x="538.0239728702486" y="-4" transform="rotate(180 538.0239728702486 0)" >echo_ok {}</text></g><g transform="translate(103.44827 210.0) rotate(1.0649912203845855) " ><rect x="0" y="-2.5" height="5" width="1072.0479114141524" fill="#81BFFC" ><title >c12 → n5 {:echo "Please echo 115", :type "echo", :msg_id 1}</title></rect><use xlink:href="#ahead" x="1076.0479114141524" y="0" /><text text-anchor="middle" x="538.0239557070762" y="-4" transform="" filter="url(#glow)" style="fill: #fff" >echo {:echo "Please echo 115"}</text><text text-anchor="middle" x="538.0239557070762" y="-4" transform="" >echo {:echo "Please echo 115"}</text></g><g transform="translate(1179.3103 250.0) rotate(178.93500877961543) " ><rect x="0" y="-2.5" height="5" width="1072.0479114141524" fill="#81BFFC" ><title >n5 → c12 {:type "echo_ok", :in_reply_to 1, :msg_id 2}</title></rect><use xlink:href="#ahead" x="1076.0479114141524" y="0" /><text text-anchor="middle" x="538.0239557070762" y="-4" transform="rotate(180 538.0239557070762 0)" filter="url(#glow)" style="fill: #fff" >echo_ok {}</text><text text-anchor="middle" x="538.0239557070762" y="-4" transform="rotate(180 538.0239557070762 0)" >echo_ok {}</text></g><g transform="translate(144.82759 290.0) rotate(1.2038645152240708) " ><rect x="0" y="-2.5" height="5" width="947.9342885959192" fill="#81BFFC" ><title >c13 → n3 {:echo "Please echo 69", :type "echo", :msg_id 1}</title></rect><use xlink:href="#ahead" x="951.9342885959192" y="0" /><text text-anchor="middle" x="475.9671442979596" y="-4" transform="" filter="url(#glow)" style="fill: #fff" >echo {:echo "Please echo 69"}</text><text text-anchor="middle" x="475.9671442979596" y="-4" transform="" >echo {:echo "Please echo 69"}</text></g><g transform="translate(1096.5518 330.0) rotate(178.79613548477593) " ><rect x="0" y="-2.5" height="5" width="947.9342885959192" fill="#81BFFC" ><title >n3 → c13 {:type "echo_ok", :in_reply_to 1, :msg_id 2}</title></rect><use xlink:href="#ahead" x="951.9342885959192" y="0" /><text text-anchor="middle" x="475.9671442979596" y="-4" transform="rotate(180 475.9671442979596 0)" filter="url(#glow)" style="fill: #fff" >echo_ok {}</text><text text-anchor="middle" x="475.9671442979596" y="-4" transform="rotate(180 475.9671442979596 0)" >echo_ok {}</text></g><g transform="translate(186.2069 370.0) rotate(1.1537174271975617) " ><rect x="0" y="-2.5" height="5" width="989.3047772949384" fill="#81BFFC" ><title >c14 → n5 {:echo "Please echo 3", :type "echo", :msg_id 1}</title></rect><use xlink:href="#ahead" x="993.3047772949384" y="0" /><text text-anchor="middle" x="496.6523886474692" y="-4" transform="" filter="url(#glow)" style="fill: #fff" >echo {:echo "Please echo 3"}</text><text text-anchor="middle" x="496.6523886474692" y="-4" transform="" >echo {:echo "Please echo 3"}</text></g><g transform="translate(1179.3103 410.0) rotate(178.84628257280244) " ><rect x="0" y="-2.5" height="5" width="989.3047772949384" fill="#81BFFC" ><title >n5 → c14 {:type "echo_ok", :in_reply_to 1, :msg_id 3}</title></rect><use xlink:href="#ahead" x="993.3047772949384" y="0" /><text text-anchor="middle" x="496.6523886474692" y="-4" transform="rotate(180 496.6523886474692 0)" filter="url(#glow)" style="fill: #fff" >echo_ok {}</text><text text-anchor="middle" x="496.6523886474692" y="-4" transform="rotate(180 496.6523886474692 0)" >echo_ok {}</text></g><g transform="translate(227.58621 450.0) rotate(1.2585684626260827) " ><rect x="0" y="-2.5" height="5" width="906.5644885834606" fill="#81BFFC" ><title >c15 → n4 {:echo "Please echo 64", :type "echo", :msg_id 1}</title></rect><use xlink:href="#ahead" x="910.5644885834606" y="0" /><text text-anchor="middle" x="455.2822442917303" y="-4" transform="" filter="url(#glow)" style="fill: #fff" >echo {:echo "Please echo 64"}</text><text text-anchor="middle" x="455.2822442917303" y="-4" transform="" >echo {:echo "Please echo 64"}</text></g><g transform="translate(1137.931 490.0) rotate(178.74143153737393) " ><rect x="0" y="-2.5" height="5" width="906.5644885834606" fill="#81BFFC" ><title >n4 → c15 {:type "echo_ok", :in_reply_to 1, :msg_id 4}</title></rect><use xlink:href="#ahead" x="910.5644885834606" y="0" /><text text-anchor="middle" x="455.2822442917303" y="-4" transform="rotate(180 455.2822442917303 0)" filter="url(#glow)" style="fill: #fff" >echo_ok {}</text><text text-anchor="middle" x="455.2822442917303" y="-4" transform="rotate(180 455.2822442917303 0)" >echo_ok {}</text></g><g transform="translate(268.9655 530.0) rotate(1.318479608774883) " ><rect x="0" y="-2.5" height="5" width="865.1956433949856" fill="#81BFFC" ><title >c16 → n4 {:echo "Please echo 32", :type "echo", :msg_id 1}</title></rect><use xlink:href="#ahead" x="869.1956433949856" y="0" /><text text-anchor="middle" x="434.5978216974928" y="-4" transform="" filter="url(#glow)" style="fill: #fff" >echo {:echo "Please echo 32"}</text><text text-anchor="middle" x="434.5978216974928" y="-4" transform="" >echo {:echo "Please echo 32"}</text></g><g transform="translate(1137.931 570.0) rotate(178.68152039122512) " ><rect x="0" y="-2.5" height="5" width="865.1956433949856" fill="#81BFFC" ><title >n4 → c16 {:type "echo_ok", :in_reply_to 1, :msg_id 5}</title></rect><use xlink:href="#ahead" x="869.1956433949856" y="0" /><text text-anchor="middle" x="434.5978216974928" y="-4" transform="rotate(180 434.5978216974928 0)" filter="url(#glow)" style="fill: #fff" >echo_ok {}</text><text text-anchor="middle" x="434.5978216974928" y="-4" transform="rotate(180 434.5978216974928 0)" >echo_ok {}</text></g><g transform="translate(310.34482 610.0) rotate(1.3184796550627988) " ><rect x="0" y="-2.5" height="5" width="865.1956128854873" fill="#81BFFC" ><title >c17 → n5 {:echo "Please echo 101", :type "echo", :msg_id 1}</title></rect><use xlink:href="#ahead" x="869.1956128854873" y="0" /><text text-anchor="middle" x="434.59780644274366" y="-4" transform="" filter="url(#glow)" style="fill: #fff" >echo {:echo "Please echo 101"}</text><text text-anchor="middle" x="434.59780644274366" y="-4" transform="" >echo {:echo "Please echo 101"}</text></g><g transform="translate(1179.3103 650.0) rotate(178.68152034493718) " ><rect x="0" y="-2.5" height="5" width="865.1956128854873" fill="#81BFFC" ><title >n5 → c17 {:type "echo_ok", :in_reply_to 1, :msg_id 4}</title></rect><use xlink:href="#ahead" x="869.1956128854873" y="0" /><text text-anchor="middle" x="434.59780644274366" y="-4" transform="rotate(180 434.59780644274366 0)" filter="url(#glow)" style="fill: #fff" >echo_ok {}</text><text text-anchor="middle" x="434.59780644274366" y="-4" transform="rotate(180 434.59780644274366 0)" >echo_ok {}</text></g><g transform="translate(351.72415 690.0) rotate(1.5381281382778156) " ><rect x="0" y="-2.5" height="5" width="741.0960763279913" fill="#81BFFC" ><title >c18 → n3 {:echo "Please echo 47", :type "echo", :msg_id 1}</title></rect><use xlink:href="#ahead" x="745.0960763279913" y="0" /><text text-anchor="middle" x="372.54803816399567" y="-4" transform="" filter="url(#glow)" style="fill: #fff" >echo {:echo "Please echo 47"}</text><text text-anchor="middle" x="372.54803816399567" y="-4" transform="" >echo {:echo "Please echo 47"}</text></g><g transform="translate(1096.5518 730.0) rotate(178.4618718617222) " ><rect x="0" y="-2.5" height="5" width="741.0960763279913" fill="#81BFFC" ><title >n3 → c18 {:type "echo_ok", :in_reply_to 1, :msg_id 3}</title></rect><use xlink:href="#ahead" x="745.0960763279913" y="0" /><text text-anchor="middle" x="372.54803816399567" y="-4" transform="rotate(180 372.54803816399567 0)" filter="url(#glow)" style="fill: #fff" >echo_ok {}</text><text text-anchor="middle" x="372.54803816399567" y="-4" transform="rotate(180 372.54803816399567 0)" >echo_ok {}</text></g><g transform="translate(393.10345 770.0) rotate(1.4572100286276186) " ><rect x="0" y="-2.5" height="5" width="782.4611929837085" fill="#81BFFC" ><title >c19 → n5 {:echo "Please echo 26", :type "echo", :msg_id 1}</title></rect><use xlink:href="#ahead" x="786.4611929837085" y="0" /><text text-anchor="middle" x="393.23059649185427" y="-4" transform="" filter="url(#glow)" style="fill: #fff" >echo {:echo "Please echo 26"}</text><text text-anchor="middle" x="393.23059649185427" y="-4" transform="" >echo {:echo "Please echo 26"}</text></g><g transform="translate(1179.3103 810.0) rotate(178.5427899713724) " ><rect x="0" y="-2.5" height="5" width="782.4611929837085" fill="#81BFFC" ><title >n5 → c19 {:type "echo_ok", :in_reply_to 1, :msg_id 5}</title></rect><use xlink:href="#ahead" x="786.4611929837085" y="0" /><text text-anchor="middle" x="393.23059649185427" y="-4" transform="rotate(180 393.23059649185427 0)" filter="url(#glow)" style="fill: #fff" >echo_ok {}</text><text text-anchor="middle" x="393.23059649185427" y="-4" transform="rotate(180 393.23059649185427 0)" >echo_ok {}</text></g><g transform="translate(434.48276 850.0) rotate(1.730283723745302) " ><rect x="0" y="-2.5" height="5" width="658.3710146770281" fill="#81BFFC" ><title >c20 → n3 {:echo "Please echo 93", :type "echo", :msg_id 1}</title></rect><use xlink:href="#ahead" x="662.3710146770281" y="0" /><text text-anchor="middle" x="331.18550733851407" y="-4" transform="" filter="url(#glow)" style="fill: #fff" >echo {:echo "Please echo 93"}</text><text text-anchor="middle" x="331.18550733851407" y="-4" transform="" >echo {:echo "Please echo 93"}</text></g><g transform="translate(1096.5518 890.0) rotate(178.2697162762547) " ><rect x="0" y="-2.5" height="5" width="658.3710146770281" fill="#81BFFC" ><title >n3 → c20 {:type "echo_ok", :in_reply_to 1, :msg_id 4}</title></rect><use xlink:href="#ahead" x="662.3710146770281" y="0" /><text text-anchor="middle" x="331.18550733851407" y="-4" transform="rotate(180 331.18550733851407 0)" filter="url(#glow)" style="fill: #fff" >echo_ok {}</text><text text-anchor="middle" x="331.18550733851407" y="-4" transform="rotate(180 331.18550733851407 0)" >echo_ok {}</text></g><g transform="translate(475.86206 930.0) rotate(1.62855901391506) " ><rect x="0" y="-2.5" height="5" width="699.732498494054" fill="#81BFFC" ><title >c21 → n5 {:echo "Please echo 126", :type "echo", :msg_id 1}</title></rect><use xlink:href="#ahead" x="703.732498494054" y="0" /><text text-anchor="middle" x="351.866249247027" y="-4" transform="" filter="url(#glow)" style="fill: #fff" >echo {:echo "Please echo 126"}</text><text text-anchor="middle" x="351.866249247027" y="-4" transform="" >echo {:echo "Please echo 126"}</text></g><g transform="translate(1179.3103 970.0) rotate(178.37144098608493) " ><rect x="0" y="-2.5" height="5" width="699.732498494054" fill="#81BFFC" ><title >n5 → c21 {:type "echo_ok", :in_reply_to 1, :msg_id 6}</title></rect><use xlink:href="#ahead" x="703.732498494054" y="0" /><text text-anchor="middle" x="351.866249247027" y="-4" transform="rotate(180 351.866249247027 0)" filter="url(#glow)" style="fill: #fff" >echo_ok {}</text><text text-anchor="middle" x="351.866249247027" y="-4" transform="rotate(180 351.866249247027 0)" >echo_ok {}</text></g><g transform="translate(517.2414 1010.0) rotate(1.9772831930515717) " ><rect x="0" y="-2.5" height="5" width="575.6554990429976" fill="#81BFFC" ><title >c22 → n3 {:echo "Please echo 63", :type "echo", :msg_id 1}</title></rect><use xlink:href="#ahead" x="579.6554990429976" y="0" /><text text-anchor="middle" x="289.8277495214988" y="-4" transform="" filter="url(#glow)" style="fill: #fff" >echo {:echo "Please echo 63"}</text><text text-anchor="middle" x="289.8277495214988" y="-4" transform="" >echo {:echo "Please echo 63"}</text></g><g transform="translate(1096.5518 1050.0) rotate(178.02271680694844) " ><rect x="0" y="-2.5" height="5" width="575.6554990429976" fill="#81BFFC" ><title >n3 → c22 {:type "echo_ok", :in_reply_to 1, :msg_id 5}</title></rect><use xlink:href="#ahead" x="579.6554990429976" y="0" /><text text-anchor="middle" x="289.8277495214988" y="-4" transform="rotate(180 289.8277495214988 0)" filter="url(#glow)" style="fill: #fff" >echo_ok {}</text><text text-anchor="middle" x="289.8277495214988" y="-4" transform="rotate(180 289.8277495214988 0)" >echo_ok {}</text></g><g transform="translate(558.62067 1090.0) rotate(2.515923462123602) " ><rect x="0" y="-2.5" height="5" width="451.61160636892754" fill="#81BFFC" ><title >c23 → n1 {:echo "Please echo 79", :type "echo", :msg_id 1}</title></rect><use xlink:href="#ahead" x="455.61160636892754" y="0" /><text text-anchor="middle" x="227.80580318446377" y="-4" transform="" filter="url(#glow)" style="fill: #fff" >echo {:echo "Please echo 79"}</text><text text-anchor="middle" x="227.80580318446377" y="-4" transform="" >echo {:echo "Please echo 79"}</text></g><g transform="translate(1013.7931 1130.0) rotate(177.48407653787643) " ><rect x="0" y="-2.5" height="5" width="451.61160636892754" fill="#81BFFC" ><title >n1 → c23 {:type "echo_ok", :in_reply_to 1, :msg_id 2}</title></rect><use xlink:href="#ahead" x="455.61160636892754" y="0" /><text text-anchor="middle" x="227.80580318446377" y="-4" transform="rotate(180 227.80580318446377 0)" filter="url(#glow)" style="fill: #fff" >echo_ok {}</text><text text-anchor="middle" x="227.80580318446377" y="-4" transform="rotate(180 227.80580318446377 0)" >echo_ok {}</text></g><g transform="translate(600.0 1170.0) rotate(2.3064997799050944) " ><rect x="0" y="-2.5" height="5" width="492.9543723388332" fill="#81BFFC" ><title >c24 → n3 {:echo "Please echo 88", :type "echo", :msg_id 1}</title></rect><use xlink:href="#ahead" x="496.9543723388332" y="0" /><text text-anchor="middle" x="248.4771861694166" y="-4" transform="" filter="url(#glow)" style="fill: #fff" >echo {:echo "Please echo 88"}</text><text text-anchor="middle" x="248.4771861694166" y="-4" transform="" >echo {:echo "Please echo 88"}</text></g><g transform="translate(1096.5518 1210.0) rotate(177.6935002200949) " ><rect x="0" y="-2.5" height="5" width="492.9543723388332" fill="#81BFFC" ><title >n3 → c24 {:type "echo_ok", :in_reply_to 1, :msg_id 6}</title></rect><use xlink:href="#ahead" x="496.9543723388332" y="0" /><text text-anchor="middle" x="248.4771861694166" y="-4" transform="rotate(180 248.4771861694166 0)" filter="url(#glow)" style="fill: #fff" >echo_ok {}</text><text text-anchor="middle" x="248.4771861694166" y="-4" transform="rotate(180 248.4771861694166 0)" >echo_ok {}</text></g><g transform="translate(641.37933 1250.0) rotate(2.129247223094079) " ><rect x="0" y="-2.5" height="5" width="534.302635759511" fill="#81BFFC" ><title >c25 → n5 {:echo "Please echo 75", :type "echo", :msg_id 1}</title></rect><use xlink:href="#ahead" x="538.302635759511" y="0" /><text text-anchor="middle" x="269.1513178797555" y="-4" transform="" filter="url(#glow)" style="fill: #fff" >echo {:echo "Please echo 75"}</text><text text-anchor="middle" x="269.1513178797555" y="-4" transform="" >echo {:echo "Please echo 75"}</text></g><g transform="translate(1179.3103 1290.0) rotate(177.87075277690593) " ><rect x="0" y="-2.5" height="5" width="534.302635759511" fill="#81BFFC" ><title >n5 → c25 {:type "echo_ok", :in_reply_to 1, :msg_id 7}</title></rect><use xlink:href="#ahead" x="538.302635759511" y="0" /><text text-anchor="middle" x="269.1513178797555" y="-4" transform="rotate(180 269.1513178797555 0)" filter="url(#glow)" style="fill: #fff" >echo_ok {}</text><text text-anchor="middle" x="269.1513178797555" y="-4" transform="rotate(180 269.1513178797555 0)" >echo_ok {}</text></g><g transform="translate(682.7586 1330.0) rotate(3.457417352695243) " ><rect x="0" y="-2.5" height="5" width="327.63810120174367" fill="#81BFFC" ><title >c26 → n1 {:echo "Please echo 42", :type "echo", :msg_id 1}</title></rect><use xlink:href="#ahead" x="331.63810120174367" y="0" /><text text-anchor="middle" x="165.81905060087183" y="-4" transform="" filter="url(#glow)" style="fill: #fff" >echo {:echo "Please echo 42"}</text><text text-anchor="middle" x="165.81905060087183" y="-4" transform="" >echo {:echo "Please echo 42"}</text></g><g transform="translate(1013.7931 1370.0) rotate(176.54258264730478) " ><rect x="0" y="-2.5" height="5" width="327.63810120174367" fill="#81BFFC" ><title >n1 → c26 {:type "echo_ok", :in_reply_to 1, :msg_id 3}</title></rect><use xlink:href="#ahead" x="331.63810120174367" y="0" /><text text-anchor="middle" x="165.81905060087183" y="-4" transform="rotate(180 165.81905060087183 0)" filter="url(#glow)" style="fill: #fff" >echo_ok {}</text><text text-anchor="middle" x="165.81905060087183" y="-4" transform="rotate(180 165.81905060087183 0)" >echo_ok {}</text></g><g transform="translate(724.13794 1410.0) rotate(2.515923799056323) " ><rect x="0" y="-2.5" height="5" width="451.6115453926055" fill="#81BFFC" ><title >c27 → n5 {:echo "Please echo 61", :type "echo", :msg_id 1}</title></rect><use xlink:href="#ahead" x="455.6115453926055" y="0" /><text text-anchor="middle" x="227.80577269630274" y="-4" transform="" filter="url(#glow)" style="fill: #fff" >echo {:echo "Please echo 61"}</text><text text-anchor="middle" x="227.80577269630274" y="-4" transform="" >echo {:echo "Please echo 61"}</text></g><g transform="translate(1179.3103 1450.0) rotate(177.4840762009437) " ><rect x="0" y="-2.5" height="5" width="451.6115453926055" fill="#81BFFC" ><title >n5 → c27 {:type "echo_ok", :in_reply_to 1, :msg_id 8}</title></rect><use xlink:href="#ahead" x="455.6115453926055" y="0" /><text text-anchor="middle" x="227.80577269630274" y="-4" transform="rotate(180 227.80577269630274 0)" filter="url(#glow)" style="fill: #fff" >echo_ok {}</text><text text-anchor="middle" x="227.80577269630274" y="-4" transform="rotate(180 227.80577269630274 0)" >echo_ok {}</text></g><g transform="translate(765.5172 1490.0) rotate(2.7671426506597387) " ><rect x="0" y="-2.5" height="5" width="410.2761422175158" fill="#81BFFC" ><title >c28 → n5 {:echo "Please echo 5", :type "echo", :msg_id 1}</title></rect><use xlink:href="#ahead" x="414.2761422175158" y="0" /><text text-anchor="middle" x="207.1380711087579" y="-4" transform="" filter="url(#glow)" style="fill: #fff" >echo {:echo "Please echo 5"}</text><text text-anchor="middle" x="207.1380711087579" y="-4" transform="" >echo {:echo "Please echo 5"}</text></g><g transform="translate(1179.3103 1530.0) rotate(177.23285734934026) " ><rect x="0" y="-2.5" height="5" width="410.2761422175158" fill="#81BFFC" ><title >n5 → c28 {:type "echo_ok", :in_reply_to 1, :msg_id 9}</title></rect><use xlink:href="#ahead" x="414.2761422175158" y="0" /><text text-anchor="middle" x="207.1380711087579" y="-4" transform="rotate(180 207.1380711087579 0)" filter="url(#glow)" style="fill: #fff" >echo_ok {}</text><text text-anchor="middle" x="207.1380711087579" y="-4" transform="rotate(180 207.1380711087579 0)" >echo_ok {}</text></g><g transform="translate(806.89655 1570.0) rotate(5.521436582107537) " ><rect x="0" y="-2.5" height="5" width="203.8609643551594" fill="#81BFFC" ><title >c29 → n1 {:echo "Please echo 78", :type "echo", :msg_id 1}</title></rect><use xlink:href="#ahead" x="207.8609643551594" y="0" /><text text-anchor="middle" x="103.9304821775797" y="-4" transform="" filter="url(#glow)" style="fill: #fff" >echo {:echo "Please echo 78"}</text><text text-anchor="middle" x="103.9304821775797" y="-4" transform="" >echo {:echo "Please echo 78"}</text></g><g transform="translate(1013.7931 1610.0) rotate(174.47856341789247) " ><rect x="0" y="-2.5" height="5" width="203.8609643551594" fill="#81BFFC" ><title >n1 → c29 {:type "echo_ok", :in_reply_to 1, :msg_id 4}</title></rect><use xlink:href="#ahead" x="207.8609643551594" y="0" /><text text-anchor="middle" x="103.9304821775797" y="-4" transform="rotate(180 103.9304821775797 0)" filter="url(#glow)" style="fill: #fff" >echo_ok {}</text><text text-anchor="middle" x="103.9304821775797" y="-4" transform="rotate(180 103.9304821775797 0)" >echo_ok {}</text></g><g transform="translate(848.2759 1650.0) rotate(5.521438200884219) " ><rect x="0" y="-2.5" height="5" width="203.86090360318994" fill="#81BFFC" ><title >c30 → n2 {:echo "Please echo 108", :type "echo", :msg_id 1}</title></rect><use xlink:href="#ahead" x="207.86090360318994" y="0" /><text text-anchor="middle" x="103.93045180159497" y="-4" transform="" filter="url(#glow)" style="fill: #fff" >echo {:echo "Please echo 108"}</text><text text-anchor="middle" x="103.93045180159497" y="-4" transform="" >echo {:echo "Please echo 108"}</text></g><g transform="translate(1055.1724 1690.0) rotate(174.4785617991158) " ><rect x="0" y="-2.5" height="5" width="203.86090360318994" fill="#81BFFC" ><title >n2 → c30 {:type "echo_ok", :in_reply_to 1, :msg_id 2}</title></rect><use xlink:href="#ahead" x="207.86090360318994" y="0" /><text text-anchor="middle" x="103.93045180159497" y="-4" transform="rotate(180 103.93045180159497 0)" filter="url(#glow)" style="fill: #fff" >echo_ok {}</text><text text-anchor="middle" x="103.93045180159497" y="-4" transform="rotate(180 103.93045180159497 0)" >echo_ok {}</text></g><g transform="translate(889.65515 1730.0) rotate(6.889838670922136) " ><rect x="0" y="-2.5" height="5" width="162.72116674197272" fill="#81BFFC" ><title >c31 → n2 {:echo "Please echo 20", :type "echo", :msg_id 1}</title></rect><use xlink:href="#ahead" x="166.72116674197272" y="0" /><text text-anchor="middle" x="83.36058337098636" y="-4" transform="" filter="url(#glow)" style="fill: #fff" >echo {:echo "Please echo 20"}</text><text text-anchor="middle" x="83.36058337098636" y="-4" transform="" >echo {:echo "Please echo 20"}</text></g><g transform="translate(1055.1724 1770.0) rotate(173.11016132907787) " ><rect x="0" y="-2.5" height="5" width="162.72116674197272" fill="#81BFFC" ><title >n2 → c31 {:type "echo_ok", :in_reply_to 1, :msg_id 3}</title></rect><use xlink:href="#ahead" x="166.72116674197272" y="0" /><text text-anchor="middle" x="83.36058337098636" y="-4" transform="rotate(180 83.36058337098636 0)" filter="url(#glow)" style="fill: #fff" >echo_ok {}</text><text text-anchor="middle" x="83.36058337098636" y="-4" transform="rotate(180 83.36058337098636 0)" >echo_ok {}</text></g><g transform="translate(931.0345 1810.0) rotate(5.521436582107537) " ><rect x="0" y="-2.5" height="5" width="203.8609643551594" fill="#81BFFC" ><title >c32 → n4 {:echo "Please echo 51", :type "echo", :msg_id 1}</title></rect><use xlink:href="#ahead" x="207.8609643551594" y="0" /><text text-anchor="middle" x="103.9304821775797" y="-4" transform="" filter="url(#glow)" style="fill: #fff" >echo {:echo "Please echo 51"}</text><text text-anchor="middle" x="103.9304821775797" y="-4" transform="" >echo {:echo "Please echo 51"}</text></g><g transform="translate(1137.931 1850.0) rotate(174.47856341789247) " ><rect x="0" y="-2.5" height="5" width="203.8609643551594" fill="#81BFFC" ><title >n4 → c32 {:type "echo_ok", :in_reply_to 1, :msg_id 6}</title></rect><use xlink:href="#ahead" x="207.8609643551594" y="0" /><text text-anchor="middle" x="103.9304821775797" y="-4" transform="rotate(180 103.9304821775797 0)" filter="url(#glow)" style="fill: #fff" >echo_ok {}</text><text text-anchor="middle" x="103.9304821775797" y="-4" transform="rotate(180 103.9304821775797 0)" >echo_ok {}</text></g><g transform="translate(972.4138 1890.0) rotate(5.521438200884219) " ><rect x="0" y="-2.5" height="5" width="203.86090360318994" fill="#81BFFC" ><title >c33 → n5 {:echo "Please echo 121", :type "echo", :msg_id 1}</title></rect><use xlink:href="#ahead" x="207.86090360318994" y="0" /><text text-anchor="middle" x="103.93045180159497" y="-4" transform="" filter="url(#glow)" style="fill: #fff" >echo {:echo "Please echo 121"}</text><text text-anchor="middle" x="103.93045180159497" y="-4" transform="" >echo {:echo "Please echo 121"}</text></g><g transform="translate(1179.3103 1930.0) rotate(174.4785617991158) " ><rect x="0" y="-2.5" height="5" width="203.86090360318994" fill="#81BFFC" ><title >n5 → c33 {:type "echo_ok", :in_reply_to 1, :msg_id 10}</title></rect><use xlink:href="#ahead" x="207.86090360318994" y="0" /><text text-anchor="middle" x="103.93045180159497" y="-4" transform="rotate(180 103.93045180159497 0)" filter="url(#glow)" style="fill: #fff" >echo_ok {}</text><text text-anchor="middle" x="103.93045180159497" y="-4" transform="rotate(180 103.93045180159497 0)" >echo_ok {}</text></g></g></svg>