<?xml version="1.0" encoding="UTF-8"?><svg xmlns:svg="http://www.w3.org/2000/svg" xmlns="http://www.w3.org/2000/svg" xmlns:xlink="http://www.w3.org/1999/xlink" version="2.0" width="1200" height="2140" ><style >
svg {
  font-family: Helvetica, Arial, sans-serif;
  font-size: 11px;
}
rect {
  stroke-linecap: butt;
  stroke-width: 3;
  stroke: #fff;
/*  stroke-opacity: 1; */
}
rect:hover {
  stroke: #fff;
/*  stroke-opacity: 1; /*
}
polygon { fill: #000; }</style><defs ><polygon id="ahead" points="0 0, -12 4, -12 -4" /><filter id="glow" x="0" y="0" ><feGaussianBlur in="SourceAlpha" stdDeviation="2" result="blurred" /><feFlood flood-color="#fff" /><feComposite operator="in" in2="blurred" /><feComponentTransfer ><feFuncA type="linear" slope="10" intercept="0" /></feComponentTransfer><feMerge ><feMergeNode /><feMergeNode in="SourceGraphic" /></feMerge></filter></defs><g ><text x="60.0" y="20.0" text-anchor="middle" alignment-baseline="middle" fill="#000" >c10</text><text x="60.0" y="1020.0" text-anchor="middle" alignment-baseline="middle" fill="#aaa" >c10</text><text x="180.0" y="20.0" text-anchor="middle" alignment-baseline="middle" fill="#000" >c11</text><text x="180.0" y="1020.0" text-anchor="middle" alignment-baseline="middle" fill="#aaa" >c11</text><text x="300.0" y="20.0" text-anchor="middle" alignment-baseline="middle" fill="#000" >c12</text><text x="300.0" y="1020.0" text-anchor="middle" alignment-baseline="middle" fill="#aaa" >c12</text><text x="420.0" y="20.0" text-anchor="middle" alignment-baseline="middle" fill="#000" >c13</text><text x="420.0" y="1020.0" text-anchor="middle" alignment-baseline="middle" fill="#aaa" >c13</text><text x="540.0" y="20.0" text-anchor="middle" alignment-baseline="middle" fill="#000" >c14</text><text x="540.0" y="1020.0" text-anchor="middle" alignment-baseline="middle" fill="#aaa" >c14</text><text x="660.0" y="20.0" text-anchor="middle" alignment-baseline="middle" fill="#000" >n1</text><text x="660.0" y="1020.0" text-anchor="middle" alignment-baseline="middle" fill="#aaa" >n1</text><text x="780.0" y="20.0" text-anchor="middle" alignment-baseline="middle" fill="#000" >n2</text><text x="780.0" y="1020.0" text-anchor="middle" alignment-baseline="middle" fill="#aaa" >n2</text><text x="900.0" y="20.0" text-anchor="middle" alignment-baseline="middle" fill="#000" >n3</text><text x="900.0" y="1020.0" text-anchor="middle" alignment-baseline="middle" fill="#aaa" >n3</text><text x="1020.0" y="20.0" text-anchor="middle" alignment-baseline="middle" fill="#000" >n4</text><text x="1020.0" y="1020.0" text-anchor="middle" alignment-baseline="middle" fill="#aaa" >n4</text><text x="1140.0" y="20.0" text-anchor="middle" alignment-baseline="middle" fill="#000" >n5</text><text x="1140.0" y="1020.0" text-anchor="middle" alignment-baseline="middle" fill="#aaa" >n5</text></g><g ><line stroke="#ccc" x1="60.0" y1="30.0" x2="60.0" y2="2050.0" /><line stroke="#ccc" x1="180.0" y1="30.0" x2="180.0" y2="2050.0" /><line stroke="#ccc" x1="300.0" y1="30.0" x2="300.0" y2="2050.0" /><line stroke="#ccc" x1="420.0" y1="30.0" x2="420.0" y2="2050.0" /><line stroke="#ccc" x1="540.0" y1="30.0" x2="540.0" y2="2050.0" /><line stroke="#ccc" x1="660.0" y1="30.0" x2="660.0" y2="2050.0" /><line stroke="#ccc" x1="780.0" y1="30.0" x2="780.0" y2="2050.0" /><line stroke="#ccc" x1="900.0" y1="30.0" x2="900.0" y2="2050.0" /><line stroke="#ccc" x1="1020.0" y1="30.0" x2="1020.0" y2="2050.0" /><line stroke="#ccc" x1="1140.0" y1="30.0" x2="1140.0" y2="2050.0" /></g><g ><g transform="translate(60.0 50.0) rotate(1.193489423982035) " ><rect x="0" y="-2.5" height="5" width="956.2083107326243" fill="#81BFFC" ><title >c10 → n4 {:echo "Please echo 78", :type "echo", :msg_id 1}</title></rect><use xlink:href="#ahead" x="960.2083107326243" y="0" /><text text-anchor="middle" x="480.10415536631217" y="-4" transform="" filter="url(#glow)" style="fill: #fff" >echo {:echo "Please echo 78"}</text><text text-anchor="middle" x="480.10415536631217" y="-4" transform="" >echo {:echo "Please echo 78"}</text></g><g transform="translate(1020.0 90.0) rotate(178.80651057601798) " ><rect x="0" y="-2.5" height="5" width="956.2083107326243" fill="#81BFFC" ><title >n4 → c10 {:type "echo_ok", :echo "Please echo 78", :in_reply_to 1, :msg_id 2}</title></rect><use xlink:href="#ahead" x="960.2083107326243" y="0" /><text text-anchor="middle" x="480.10415536631217" y="-4" transform="rotate(180 480.10415536631217 0)" filter="url(#glow)" style="fill: #fff" >echo_ok {:echo "Please echo 78"}</text><text text-anchor="middle" x="480.10415536631217" y="-4" transform="rotate(180 480.10415536631217 0)" >echo_ok {:echo "Please echo 78"}</text></g><g transform="translate(180.0 130.0) rotate(1.5911402711945872) " ><rect x="0" y="-2.5" height="5" width="716.2777242147642" fill="#81BFFC" ><title >c11 → n3 {:echo "Please echo 6", :type "echo", :msg_id 1}</title></rect><use xlink:href="#ahead" x="720.2777242147642" y="0" /><text text-anchor="middle" x="360.1388621073821" y="-4" transform="" filter="url(#glow)" style="fill: #fff" >echo {:echo "Please echo 6"}</text><text text-anchor="middle" x="360.1388621073821" y="-4" transform="" >echo {:echo "Please echo 6"}</text></g><g transform="translate(900.0 170.0) rotate(178.4088597288054) " ><rect x="0" y="-2.5" height="5" width="716.2777242147642" fill="#81BFFC" ><title >n3 → c11 {:type "echo_ok", :echo "Please echo 6", :in_reply_to 1, :msg_id 2}</title></rect><use xlink:href="#ahead" x="720.2777242147642" y="0" /><text text-anchor="middle" x="360.1388621073821" y="-4" transform="rotate(180 360.1388621073821 0)" filter="url(#glow)" style="fill: #fff" >echo_ok {:echo "Please echo 6"}</text><text text-anchor="middle" x="360.1388621073821" y="-4" transform="rotate(180 360.1388621073821 0)" >echo_ok {:echo "Please echo 6"}</text></g><g transform="translate(300.0 210.0) rotate(1.3639275316029187) " ><rect x="0" y="-2.5" height="5" width="836.2380615040001" fill="#81BFFC" ><title >c12 → n5 {:echo "Please echo 25", :type "echo", :msg_id 1}</title></rect><use xlink:href="#ahead" x="840.2380615040001" y="0" /><text text-anchor="middle" x="420.11903075200007" y="-4" transform="" filter="url(#glow)" style="fill: #fff" >echo {:echo "Please echo 25"}</text><text text-anchor="middle" x="420.11903075200007" y="-4" transform="" >echo {:echo "Please echo 25"}</text></g><g transform="translate(1140.0 250.0) rotate(178.6360724683971) " ><rect x="0" y="-2.5" height="5" width="836.2380615040001" fill="#81BFFC" ><title >n5 → c12 {:type "echo_ok", :echo "Please echo 25", :in_reply_to 1, :msg_id 2}</title></rect><use xlink:href="#ahead" x="840.2380615040001" y="0" /><text text-anchor="middle" x="420.11903075200007" y="-4" transform="rotate(180 420.11903075200007 0)" filter="url(#glow)" style="fill: #fff" >echo_ok {:echo "Please echo 25"}</text><text text-anchor="middle" x="420.11903075200007" y="-4" transform="rotate(180 420.11903075200007 0)" >echo_ok {:echo "Please echo 25"}</text></g><g transform="translate(420.0 290.0) rotate(4.763641690726177) " ><rect x="0" y="-2.5" height="5" width="236.8318915758459" fill="#81BFFC" ><title >c13 → n1 {:echo "Please echo 89", :type "echo", :msg_id 1}</title></rect><use xlink:href="#ahead" x="240.8318915758459" y="0" /><text text-anchor="middle" x="120.41594578792295" y="-4" transform="" filter="url(#glow)" style="fill: #fff" >echo {:echo "Please echo 89"}</text><text text-anchor="middle" x="120.41594578792295" y="-4" transform="" >echo {:echo "Please echo 89"}</text></g><g transform="translate(660.0 330.0) rotate(175.2363583092738) " ><rect x="0" y="-2.5" height="5" width="236.8318915758459" fill="#81BFFC" ><title >n1 → c13 {:type "echo_ok", :echo "Please echo 89", :in_reply_to 1, :msg_id 2}</title></rect><use xlink:href="#ahead" x="240.8318915758459" y="0" /><text text-anchor="middle" x="120.41594578792295" y="-4" transform="rotate(180 120.41594578792295 0)" filter="url(#glow)" style="fill: #fff" >echo_ok {:echo "Please echo 89"}</text><text text-anchor="middle" x="120.41594578792295" y="-4" transform="rotate(180 120.41594578792295 0)" >echo_ok {:echo "Please echo 89"}</text></g><g transform="translate(60.0 370.0) rotate(1.193489423982035) " ><rect x="0" y="-2.5" height="5" width="956.2083107326243" fill="#81BFFC" ><title >c10 → n4 {:echo "Please echo 84", :type "echo", :msg_id 2}</title></rect><use xlink:href="#ahead" x="960.2083107326243" y="0" /><text text-anchor="middle" x="480.10415536631217" y="-4" transform="" filter="url(#glow)" style="fill: #fff" >echo {:echo "Please echo 84"}</text><text text-anchor="middle" x="480.10415536631217" y="-4" transform="" >echo {:echo "Please echo 84"}</text></g><g transform="translate(1020.0 410.0) rotate(178.80651057601798) " ><rect x="0" y="-2.5" height="5" width="956.2083107326243" fill="#81BFFC" ><title >n4 → c10 {:type "echo_ok", :echo "Please echo 84", :in_reply_to 2, :msg_id 3}</title></rect><use xlink:href="#ahead" x="960.2083107326243" y="0" /><text text-anchor="middle" x="480.10415536631217" y="-4" transform="rotate(180 480.10415536631217 0)" filter="url(#glow)" style="fill: #fff" >echo_ok {:echo "Please echo 84"}</text><text text-anchor="middle" x="480.10415536631217" y="-4" transform="rotate(180 480.10415536631217 0)" >echo_ok {:echo "Please echo 84"}</text></g><g transform="translate(420.0 450.0) rotate(4.763641690726177) " ><rect x="0" y="-2.5" height="5" width="236.8318915758459" fill="#81BFFC" ><title >c13 → n1 {:echo "Please echo 58", :type "echo", :msg_id 2}</title></rect><use xlink:href="#ahead" x="240.8318915758459" y="0" /><text text-anchor="middle" x="120.41594578792295" y="-4" transform="" filter="url(#glow)" style="fill: #fff" >echo {:echo "Please echo 58"}</text><text text-anchor="middle" x="120.41594578792295" y="-4" transform="" >echo {:echo "Please echo 58"}</text></g><g transform="translate(660.0 490.0) rotate(175.2363583092738) " ><rect x="0" y="-2.5" height="5" width="236.8318915758459" fill="#81BFFC" ><title >n1 → c13 {:type "echo_ok", :echo "Please echo 58", :in_reply_to 2, :msg_id 3}</title></rect><use xlink:href="#ahead" x="240.8318915758459" y="0" /><text text-anchor="middle" x="120.41594578792295" y="-4" transform="rotate(180 120.41594578792295 0)" filter="url(#glow)" style="fill: #fff" >echo_ok {:echo "Please echo 58"}</text><text text-anchor="middle" x="120.41594578792295" y="-4" transform="rotate(180 120.41594578792295 0)" >echo_ok {:echo "Please echo 58"}</text></g><g transform="translate(300.0 530.0) rotate(1.3639275316029187) " ><rect x="0" y="-2.5" height="5" width="836.2380615040001" fill="#81BFFC" ><title >c12 → n5 {:echo "Please echo 34", :type "echo", :msg_id 2}</title></rect><use xlink:href="#ahead" x="840.2380615040001" y="0" /><text text-anchor="middle" x="420.11903075200007" y="-4" transform="" filter="url(#glow)" style="fill: #fff" >echo {:echo "Please echo 34"}</text><text text-anchor="middle" x="420.11903075200007" y="-4" transform="" >echo {:echo "Please echo 34"}</text></g><g transform="translate(1140.0 570.0) rotate(178.6360724683971) " ><rect x="0" y="-2.5" height="5" width="836.2380615040001" fill="#81BFFC" ><title >n5 → c12 {:type "echo_ok", :echo "Please echo 34", :in_reply_to 2, :msg_id 3}</title></rect><use xlink:href="#ahead" x="840.2380615040001" y="0" /><text text-anchor="middle" x="420.11903075200007" y="-4" transform="rotate(180 420.11903075200007 0)" filter="url(#glow)" style="fill: #fff" >echo_ok {:echo "Please echo 34"}</text><text text-anchor="middle" x="420.11903075200007" y="-4" transform="rotate(180 420.11903075200007 0)" >echo_ok {:echo "Please echo 34"}</text></g><g transform="translate(180.0 610.0) rotate(1.5911402711945872) " ><rect x="0" y="-2.5" height="5" width="716.2777242147642" fill="#81BFFC" ><title >c11 → n3 {:echo "Please echo 81", :type "echo", :msg_id 2}</title></rect><use xlink:href="#ahead" x="720.2777242147642" y="0" /><text text-anchor="middle" x="360.1388621073821" y="-4" transform="" filter="url(#glow)" style="fill: #fff" >echo {:echo "Please echo 81"}</text><text text-anchor="middle" x="360.1388621073821" y="-4" transform="" >echo {:echo "Please echo 81"}</text></g><g transform="translate(900.0 650.0) rotate(178.4088597288054) " ><rect x="0" y="-2.5" height="5" width="716.2777242147642" fill="#81BFFC" ><title >n3 → c11 {:type "echo_ok", :echo "Please echo 81", :in_reply_to 2, :msg_id 3}</title></rect><use xlink:href="#ahead" x="720.2777242147642" y="0" /><text text-anchor="middle" x="360.1388621073821" y="-4" transform="rotate(180 360.1388621073821 0)" filter="url(#glow)" style="fill: #fff" >echo_ok {:echo "Please echo 81"}</text><text text-anchor="middle" x="360.1388621073821" y="-4" transform="rotate(180 360.1388621073821 0)" >echo_ok {:echo "Please echo 81"}</text></g><g transform="translate(300.0 690.0) rotate(1.3639275316029187) " ><rect x="0" y="-2.5" height="5" width="836.2380615040001" fill="#81BFFC" ><title >c12 → n5 {:echo "Please echo 99", :type "echo", :msg_id 3}</title></rect><use xlink:href="#ahead" x="840.2380615040001" y="0" /><text text-anchor="middle" x="420.11903075200007" y="-4" transform="" filter="url(#glow)" style="fill: #fff" >echo {:echo "Please echo 99"}</text><text text-anchor="middle" x="420.11903075200007" y="-4" transform="" >echo {:echo "Please echo 99"}</text></g><g transform="translate(1140.0 730.0) rotate(178.6360724683971) " ><rect x="0" y="-2.5" height="5" width="836.2380615040001" fill="#81BFFC" ><title >n5 → c12 {:type "echo_ok", :echo "Please echo 99", :in_reply_to 3, :msg_id 4}</title></rect><use xlink:href="#ahead" x="840.2380615040001" y="0" /><text text-anchor="middle" x="420.11903075200007" y="-4" transform="rotate(180 420.11903075200007 0)" filter="url(#glow)" style="fill: #fff" >echo_ok {:echo "Please echo 99"}</text><text text-anchor="middle" x="420.11903075200007" y="-4" transform="rotate(180 420.11903075200007 0)" >echo_ok {:echo "Please echo 99"}</text></g><g transform="translate(60.0 770.0) rotate(1.193489423982035) " ><rect x="0" y="-2.5" height="5" width="956.2083107326243" fill="#81BFFC" ><title >c10 → n4 {:echo "Please echo 70", :type "echo", :msg_id 3}</title></rect><use xlink:href="#ahead" x="960.2083107326243" y="0" /><text text-anchor="middle" x="480.10415536631217" y="-4" transform="" filter="url(#glow)" style="fill: #fff" >echo {:echo "Please echo 70"}</text><text text-anchor="middle" x="480.10415536631217" y="-4" transform="" >echo {:echo "Please echo 70"}</text></g><g transform="translate(1020.0 810.0) rotate(178.80651057601798) " ><rect x="0" y="-2.5" height="5" width="956.2083107326243" fill="#81BFFC" ><title >n4 → c10 {:type "echo_ok", :echo "Please echo 70", :in_reply_to 3, :msg_id 4}</title></rect><use xlink:href="#ahead" x="960.2083107326243" y="0" /><text text-anchor="middle" x="480.10415536631217" y="-4" transform="rotate(180 480.10415536631217 0)" filter="url(#glow)" style="fill: #fff" >echo_ok {:echo "Please echo 70"}</text><text text-anchor="middle" x="480.10415536631217" y="-4" transform="rotate(180 480.10415536631217 0)" >echo_ok {:echo "Please echo 70"}</text></g><g transform="translate(180.0 850.0) rotate(1.5911402711945872) " ><rect x="0" y="-2.5" height="5" width="716.2777242147642" fill="#81BFFC" ><title >c11 → n3 {:echo "Please echo 99", :type "echo", :msg_id 3}</title></rect><use xlink:href="#ahead" x="720.2777242147642" y="0" /><text text-anchor="middle" x="360.1388621073821" y="-4" transform="" filter="url(#glow)" style="fill: #fff" >echo {:echo "Please echo 99"}</text><text text-anchor="middle" x="360.1388621073821" y="-4" transform="" >echo {:echo "Please echo 99"}</text></g><g transform="translate(900.0 890.0) rotate(178.4088597288054) " ><rect x="0" y="-2.5" height="5" width="716.2777242147642" fill="#81BFFC" ><title >n3 → c11 {:type "echo_ok", :echo "Please echo 99", :in_reply_to 3, :msg_id 4}</title></rect><use xlink:href="#ahead" x="720.2777242147642" y="0" /><text text-anchor="middle" x="360.1388621073821" y="-4" transform="rotate(180 360.1388621073821 0)" filter="url(#glow)" style="fill: #fff" >echo_ok {:echo "Please echo 99"}</text><text text-anchor="middle" x="360.1388621073821" y="-4" transform="rotate(180 360.1388621073821 0)" >echo_ok {:echo "Please echo 99"}</text></g><g transform="translate(180.0 930.0) rotate(1.5911402711945872) " ><rect x="0" y="-2.5" height="5" width="716.2777242147642" fill="#81BFFC" ><title >c11 → n3 {:echo "Please echo 122", :type "echo", :msg_id 4}</title></rect><use xlink:href="#ahead" x="720.2777242147642" y="0" /><text text-anchor="middle" x="360.1388621073821" y="-4" transform="" filter="url(#glow)" style="fill: #fff" >echo {:echo "Please echo 122"}</text><text text-anchor="middle" x="360.1388621073821" y="-4" transform="" >echo {:echo "Please echo 122"}</text></g><g transform="translate(900.0 970.0) rotate(178.4088597288054) " ><rect x="0" y="-2.5" height="5" width="716.2777242147642" fill="#81BFFC" ><title >n3 → c11 {:type "echo_ok", :echo "Please echo 122", :in_reply_to 4, :msg_id 5}</title></rect><use xlink:href="#ahead" x="720.2777242147642" y="0" /><text text-anchor="middle" x="360.1388621073821" y="-4" transform="rotate(180 360.1388621073821 0)" filter="url(#glow)" style="fill: #fff" >echo_ok {:echo "Please echo 122"}</text><text text-anchor="middle" x="360.1388621073821" y="-4" transform="rotate(180 360.1388621073821 0)" >echo_ok {:echo "Please echo 122"}</text></g><g transform="translate(180.0 1010.0) rotate(1.5911402711945872) " ><rect x="0" y="-2.5" height="5" width="716.2777242147642" fill="#81BFFC" ><title >c11 → n3 {:echo "Please echo 71", :type "echo", :msg_id 5}</title></rect><use xlink:href="#ahead" x="720.2777242147642" y="0" /><text text-anchor="middle" x="360.1388621073821" y="-4" transform="" filter="url(#glow)" style="fill: #fff" >echo {:echo "Please echo 71"}</text><text text-anchor="middle" x="360.1388621073821" y="-4" transform="" >echo {:echo "Please echo 71"}</text></g><g transform="translate(900.0 1050.0) rotate(178.4088597288054) " ><rect x="0" y="-2.5" height="5" width="716.2777242147642" fill="#81BFFC" ><title >n3 → c11 {:type "echo_ok", :echo "Please echo 71", :in_reply_to 5, :msg_id 6}</title></rect><use xlink:href="#ahead" x="720.2777242147642" y="0" /><text text-anchor="middle" x="360.1388621073821" y="-4" transform="rotate(180 360.1388621073821 0)" filter="url(#glow)" style="fill: #fff" >echo_ok {:echo "Please echo 71"}</text><text text-anchor="middle" x="360.1388621073821" y="-4" transform="rotate(180 360.1388621073821 0)" >echo_ok {:echo "Please echo 71"}</text></g><g transform="translate(540.0 1090.0) rotate(4.763641690726177) " ><rect x="0" y="-2.5" height="5" width="236.8318915758459" fill="#81BFFC" ><title >c14 → n2 {:echo "Please echo 113", :type "echo", :msg_id 1}</title></rect><use xlink:href="#ahead" x="240.8318915758459" y="0" /><text text-anchor="middle" x="120.41594578792295" y="-4" transform="" filter="url(#glow)" style="fill: #fff" >echo {:echo "Please echo 113"}</text><text text-anchor="middle" x="120.41594578792295" y="-4" transform="" >echo {:echo "Please echo 113"}</text></g><g transform="translate(780.0 1130.0) rotate(175.2363583092738) " ><rect x="0" y="-2.5" height="5" width="236.8318915758459" fill="#81BFFC" ><title >n2 → c14 {:type "echo_ok", :echo "Please echo 113", :in_reply_to 1, :msg_id 2}</title></rect><use xlink:href="#ahead" x="240.8318915758459" y="0" /><text text-anchor="middle" x="120.41594578792295" y="-4" transform="rotate(180 120.41594578792295 0)" filter="url(#glow)" style="fill: #fff" >echo_ok {:echo "Please echo 113"}</text><text text-anchor="middle" x="120.41594578792295" y="-4" transform="rotate(180 120.41594578792295 0)" >echo_ok {:echo "Please echo 113"}</text></g><g transform="translate(300.0 1170.0) rotate(1.3639275316029187) " ><rect x="0" y="-2.5" height="5" width="836.2380615040001" fill="#81BFFC" ><title >c12 → n5 {:echo "Please echo 82", :type "echo", :msg_id 4}</title></rect><use xlink:href="#ahead" x="840.2380615040001" y="0" /><text text-anchor="middle" x="420.11903075200007" y="-4" transform="" filter="url(#glow)" style="fill: #fff" >echo {:echo "Please echo 82"}</text><text text-anchor="middle" x="420.11903075200007" y="-4" transform="" >echo {:echo "Please echo 82"}</text></g><g transform="translate(1140.0 1210.0) rotate(178.6360724683971) " ><rect x="0" y="-2.5" height="5" width="836.2380615040001" fill="#81BFFC" ><title >n5 → c12 {:type "echo_ok", :echo "Please echo 82", :in_reply_to 4, :msg_id 5}</title></rect><use xlink:href="#ahead" x="840.2380615040001" y="0" /><text text-anchor="middle" x="420.11903075200007" y="-4" transform="rotate(180 420.11903075200007 0)" filter="url(#glow)" style="fill: #fff" >echo_ok {:echo "Please echo 82"}</text><text text-anchor="middle" x="420.11903075200007" y="-4" transform="rotate(180 420.11903075200007 0)" >echo_ok {:echo "Please echo 82"}</text></g><g transform="translate(420.0 1250.0) rotate(4.763641690726177) " ><rect x="0" y="-2.5" height="5" width="236.8318915758459" fill="#81BFFC" ><title >c13 → n1 {:echo "Please echo 88", :type "echo", :msg_id 3}</title></rect><use xlink:href="#ahead" x="240.8318915758459" y="0" /><text text-anchor="middle" x="120.41594578792295" y="-4" transform="" filter="url(#glow)" style="fill: #fff" >echo {:echo "Please echo 88"}</text><text text-anchor="middle" x="120.41594578792295" y="-4" transform="" >echo {:echo "Please echo 88"}</text></g><g transform="translate(660.0 1290.0) rotate(175.2363583092738) " ><rect x="0" y="-2.5" height="5" width="236.8318915758459" fill="#81BFFC" ><title >n1 → c13 {:type "echo_ok", :echo "Please echo 88", :in_reply_to 3, :msg_id 4}</title></rect><use xlink:href="#ahead" x="240.8318915758459" y="0" /><text text-anchor="middle" x="120.41594578792295" y="-4" transform="rotate(180 120.41594578792295 0)" filter="url(#glow)" style="fill: #fff" >echo_ok {:echo "Please echo 88"}</text><text text-anchor="middle" x="120.41594578792295" y="-4" transform="rotate(180 120.41594578792295 0)" >echo_ok {:echo "Please echo 88"}</text></g><g transform="translate(60.0 1330.0) rotate(1.193489423982035) " ><rect x="0" y="-2.5" height="5" width="956.2083107326243" fill="#81BFFC" ><title >c10 → n4 {:echo "Please echo 3", :type "echo", :msg_id 4}</title></rect><use xlink:href="#ahead" x="960.2083107326243" y="0" /><text text-anchor="middle" x="480.10415536631217" y="-4" transform="" filter="url(#glow)" style="fill: #fff" >echo {:echo "Please echo 3"}</text><text text-anchor="middle" x="480.10415536631217" y="-4" transform="" >echo {:echo "Please echo 3"}</text></g><g transform="translate(1020.0 1370.0) rotate(178.80651057601798) " ><rect x="0" y="-2.5" height="5" width="956.2083107326243" fill="#81BFFC" ><title >n4 → c10 {:type "echo_ok", :echo "Please echo 3", :in_reply_to 4, :msg_id 5}</title></rect><use xlink:href="#ahead" x="960.2083107326243" y="0" /><text text-anchor="middle" x="480.10415536631217" y="-4" transform="rotate(180 480.10415536631217 0)" filter="url(#glow)" style="fill: #fff" >echo_ok {:echo "Please echo 3"}</text><text text-anchor="middle" x="480.10415536631217" y="-4" transform="rotate(180 480.10415536631217 0)" >echo_ok {:echo "Please echo 3"}</text></g><g transform="translate(540.0 1410.0) rotate(4.763641690726177) " ><rect x="0" y="-2.5" height="5" width="236.8318915758459" fill="#81BFFC" ><title >c14 → n2 {:echo "Please echo 13", :type "echo", :msg_id 2}</title></rect><use xlink:href="#ahead" x="240.8318915758459" y="0" /><text text-anchor="middle" x="120.41594578792295" y="-4" transform="" filter="url(#glow)" style="fill: #fff" >echo {:echo "Please echo 13"}</text><text text-anchor="middle" x="120.41594578792295" y="-4" transform="" >echo {:echo "Please echo 13"}</text></g><g transform="translate(780.0 1450.0) rotate(175.2363583092738) " ><rect x="0" y="-2.5" height="5" width="236.8318915758459" fill="#81BFFC" ><title >n2 → c14 {:type "echo_ok", :echo "Please echo 13", :in_reply_to 2, :msg_id 3}</title></rect><use xlink:href="#ahead" x="240.8318915758459" y="0" /><text text-anchor="middle" x="120.41594578792295" y="-4" transform="rotate(180 120.41594578792295 0)" filter="url(#glow)" style="fill: #fff" >echo_ok {:echo "Please echo 13"}</text><text text-anchor="middle" x="120.41594578792295" y="-4" transform="rotate(180 120.41594578792295 0)" >echo_ok {:echo "Please echo 13"}</text></g><g transform="translate(540.0 1490.0) rotate(4.763641690726177) " ><rect x="0" y="-2.5" height="5" width="236.8318915758459" fill="#81BFFC" ><title >c14 → n2 {:echo "Please echo 47", :type "echo", :msg_id 3}</title></rect><use xlink:href="#ahead" x="240.8318915758459" y="0" /><text text-anchor="middle" x="120.41594578792295" y="-4" transform="" filter="url(#glow)" style="fill: #fff" >echo {:echo "Please echo 47"}</text><text text-anchor="middle" x="120.41594578792295" y="-4" transform="" >echo {:echo "Please echo 47"}</text></g><g transform="translate(780.0 1530.0) rotate(175.2363583092738) " ><rect x="0" y="-2.5" height="5" width="236.8318915758459" fill="#81BFFC" ><title >n2 → c14 {:type "echo_ok", :echo "Please echo 47", :in_reply_to 3, :msg_id 4}</title></rect><use xlink:href="#ahead" x="240.8318915758459" y="0" /><text text-anchor="middle" x="120.41594578792295" y="-4" transform="rotate(180 120.41594578792295 0)" filter="url(#glow)" style="fill: #fff" >echo_ok {:echo "Please echo 47"}</text><text text-anchor="middle" x="120.41594578792295" y="-4" transform="rotate(180 120.41594578792295 0)" >echo_ok {:echo "Please echo 47"}</text></g><g transform="translate(540.0 1570.0) rotate(4.763641690726177) " ><rect x="0" y="-2.5" height="5" width="236.8318915758459" fill="#81BFFC" ><title >c14 → n2 {:echo "Please echo 2", :type "echo", :msg_id 4}</title></rect><use xlink:href="#ahead" x="240.8318915758459" y="0" /><text text-anchor="middle" x="120.41594578792295" y="-4" transform="" filter="url(#glow)" style="fill: #fff" >echo {:echo "Please echo 2"}</text><text text-anchor="middle" x="120.41594578792295" y="-4" transform="" >echo {:echo "Please echo 2"}</text></g><g transform="translate(780.0 1610.0) rotate(175.2363583092738) " ><rect x="0" y="-2.5" height="5" width="236.8318915758459" fill="#81BFFC" ><title >n2 → c14 {:type "echo_ok", :echo "Please echo 2", :in_reply_to 4, :msg_id 5}</title></rect><use xlink:href="#ahead" x="240.8318915758459" y="0" /><text text-anchor="middle" x="120.41594578792295" y="-4" transform="rotate(180 120.41594578792295 0)" filter="url(#glow)" style="fill: #fff" >echo_ok {:echo "Please echo 2"}</text><text text-anchor="middle" x="120.41594578792295" y="-4" transform="rotate(180 120.41594578792295 0)" >echo_ok {:echo "Please echo 2"}</text></g><g transform="translate(60.0 1650.0) rotate(1.193489423982035) " ><rect x="0" y="-2.5" height="5" width="956.2083107326243" fill="#81BFFC" ><title >c10 → n4 {:echo "Please echo 91", :type "echo", :msg_id 5}</title></rect><use xlink:href="#ahead" x="960.2083107326243" y="0" /><text text-anchor="middle" x="480.10415536631217" y="-4" transform="" filter="url(#glow)" style="fill: #fff" >echo {:echo "Please echo 91"}</text><text text-anchor="middle" x="480.10415536631217" y="-4" transform="" >echo {:echo "Please echo 91"}</text></g><g transform="translate(1020.0 1690.0) rotate(178.80651057601798) " ><rect x="0" y="-2.5" height="5" width="956.2083107326243" fill="#81BFFC" ><title >n4 → c10 {:type "echo_ok", :echo "Please echo 91", :in_reply_to 5, :msg_id 6}</title></rect><use xlink:href="#ahead" x="960.2083107326243" y="0" /><text text-anchor="middle" x="480.10415536631217" y="-4" transform="rotate(180 480.10415536631217 0)" filter="url(#glow)" style="fill: #fff" >echo_ok {:echo "Please echo 91"}</text><text text-anchor="middle" x="480.10415536631217" y="-4" transform="rotate(180 480.10415536631217 0)" >echo_ok {:echo "Please echo 91"}</text></g><g transform="translate(180.0 1730.0) rotate(1.5911402711945872) " ><rect x="0" y="-2.5" height="5" width="716.2777242147642" fill="#81BFFC" ><title >c11 → n3 {:echo "Please echo 10", :type "echo", :msg_id 6}</title></rect><use xlink:href="#ahead" x="720.2777242147642" y="0" /><text text-anchor="middle" x="360.1388621073821" y="-4" transform="" filter="url(#glow)" style="fill: #fff" >echo {:echo "Please echo 10"}</text><text text-anchor="middle" x="360.1388621073821" y="-4" transform="" >echo {:echo "Please echo 10"}</text></g><g transform="translate(900.0 1770.0) rotate(178.4088597288054) " ><rect x="0" y="-2.5" height="5" width="716.2777242147642" fill="#81BFFC" ><title >n3 → c11 {:type "echo_ok", :echo "Please echo 10", :in_reply_to 6, :msg_id 7}</title></rect><use xlink:href="#ahead" x="720.2777242147642" y="0" /><text text-anchor="middle" x="360.1388621073821" y="-4" transform="rotate(180 360.1388621073821 0)" filter="url(#glow)" style="fill: #fff" >echo_ok {:echo "Please echo 10"}</text><text text-anchor="middle" x="360.1388621073821" y="-4" transform="rotate(180 360.1388621073821 0)" >echo_ok {:echo "Please echo 10"}</text></g><g transform="translate(180.0 1810.0) rotate(1.5911402711945872) " ><rect x="0" y="-2.5" height="5" width="716.2777242147642" fill="#81BFFC" ><title >c11 → n3 {:echo "Please echo 75", :type "echo", :msg_id 7}</title></rect><use xlink:href="#ahead" x="720.2777242147642" y="0" /><text text-anchor="middle" x="360.1388621073821" y="-4" transform="" filter="url(#glow)" style="fill: #fff" >echo {:echo "Please echo 75"}</text><text text-anchor="middle" x="360.1388621073821" y="-4" transform="" >echo {:echo "Please echo 75"}</text></g><g transform="translate(900.0 1850.0) rotate(178.4088597288054) " ><rect x="0" y="-2.5" height="5" width="716.2777242147642" fill="#81BFFC" ><title >n3 → c11 {:type "echo_ok", :echo "Please echo 75", :in_reply_to 7, :msg_id 8}</title></rect><use xlink:href="#ahead" x="720.2777242147642" y="0" /><text text-anchor="middle" x="360.1388621073821" y="-4" transform="rotate(180 360.1388621073821 0)" filter="url(#glow)" style="fill: #fff" >echo_ok {:echo "Please echo 75"}</text><text text-anchor="middle" x="360.1388621073821" y="-4" transform="rotate(180 360.1388621073821 0)" >echo_ok {:echo "Please echo 75"}</text></g><g transform="translate(420.0 1890.0) rotate(4.763641690726177) " ><rect x="0" y="-2.5" height="5" width="236.8318915758459" fill="#81BFFC" ><title >c13 → n1 {:echo "Please echo 15", :type "echo", :msg_id 4}</title></rect><use xlink:href="#ahead" x="240.8318915758459" y="0" /><text text-anchor="middle" x="120.41594578792295" y="-4" transform="" filter="url(#glow)" style="fill: #fff" >echo {:echo "Please echo 15"}</text><text text-anchor="middle" x="120.41594578792295" y="-4" transform="" >echo {:echo "Please echo 15"}</text></g><g transform="translate(660.0 1930.0) rotate(175.2363583092738) " ><rect x="0" y="-2.5" height="5" width="236.8318915758459" fill="#81BFFC" ><title >n1 → c13 {:type "echo_ok", :echo "Please echo 15", :in_reply_to 4, :msg_id 5}</title></rect><use xlink:href="#ahead" x="240.8318915758459" y="0" /><text text-anchor="middle" x="120.41594578792295" y="-4" transform="rotate(180 120.41594578792295 0)" filter="url(#glow)" style="fill: #fff" >echo_ok {:echo "Please echo 15"}</text><text text-anchor="middle" x="120.41594578792295" y="-4" transform="rotate(180 120.41594578792295 0)" >echo_ok {:echo "Please echo 15"}</text></g><g transform="translate(180.0 1970.0) rotate(1.5911402711945872) " ><rect x="0" y="-2.5" height="5" width="716.2777242147642" fill="#81BFFC" ><title >c11 → n3 {:echo "Please echo 48", :type "echo", :msg_id 8}</title></rect><use xlink:href="#ahead" x="720.2777242147642" y="0" /><text text-anchor="middle" x="360.1388621073821" y="-4" transform="" filter="url(#glow)" style="fill: #fff" >echo {:echo "Please echo 48"}</text><text text-anchor="middle" x="360.1388621073821" y="-4" transform="" >echo {:echo "Please echo 48"}</text></g><g transform="translate(900.0 2010.0) rotate(178.4088597288054) " ><rect x="0" y="-2.5" height="5" width="716.2777242147642" fill="#81BFFC" ><title >n3 → c11 {:type "echo_ok", :echo "Please echo 48", :in_reply_to 8, :msg_id 9}</title></rect><use xlink:href="#ahead" x="720.2777242147642" y="0" /><text text-anchor="middle" x="360.1388621073821" y="-4" transform="rotate(180 360.1388621073821 0)" filter="url(#glow)" style="fill: #fff" >echo_ok {:echo "Please echo 48"}</text><text text-anchor="middle" x="360.1388621073821" y="-4" transform="rotate(180 360.1388621073821 0)" >echo_ok {:echo "Please echo 48"}</text></g></g></svg>